<?xml version="1.0" encoding="UTF-8"?>
<svg version="1.1" viewBox="0 0 2000 2000" width="1280" height="1280" xmlns="http://www.w3.org/2000/svg">
<path transform="translate(532,870)" d="m0 0 10 1 8 6 4 8-1 7-7 14-10 13-13 15-16 16-7 8-8 7-1 4 5-1 15-6 22-7 17-4 9-1h16l7 2 8 9 3 7 7-6 9-11 5-4 7 1 4 5-1 6-6 8-12 15-9 13-7 11-6 12 7-1 9-6 14-12 8-7 15-15 11-14 6-7 4 1 6 7-2 6-7 10-10 15-9 16-1 9 6-1 10-6 4-5 11-22 14-22 8-10 5-5 4 1 5 7-1 7-10 13-1 4 5-2 13-13 11-9 9-7 6-2 4 2 2 5 2 16 5-4 5-5 8-7 9-4 10-1 8 3 8 8 6-4 4-3 6 1 5 5v8l-11 32-3 9 6-1 5-5 5-18 8-15 7-9 9-8 12-5h12l8 4 7 10 3 6v2h3l2-5 8-11 4-4 5 1 5 7-1 7-9 12-4 6v3l8-7 18-18 13-10 6-3 5 2 2 3 3 27v3l-4-2-4-8-3-9-5 2-13 11-13 12-11 11h-2l-2 4-9 10-9 11-5 6-4 2-4-3-2-10-13 5-6 2h-15l-6-4-5-7-2-6-14 9-8 10-7 14-12 20-10 14-9 10-8 8-10 5h-7l-4-2-3-5 1-9 7-11 14-15 8-8 17-13 7-8 10-21 11-28 1-6-5 2-13 12h-2v2l-8 7-17 17-11 9-11 7-6-1-6-8-1-2v-7l6-16 8-13 3-6-4-12v-2l-7 3-10 9-8 7-15 15-7 8-12 13-9 11-4 3-4-2-5-7-6 2-4 2h-8l-5-6-3-9v-12l-8 6-10 9-13 10-10 4-6-4-3-7-2-6-4 2-10 10-8 7-12 11-14 11-15 11-17 11-20 12-23 12-22 8h-6l-8-7-3-4 1-5 7-8 11-11 11-9 18-14 20-13 20-12 16-8 17-5h10l5 1 13-13 7-8 8-11 5-10v-6h-16l-26 5-23 7-24 10-22 10h-6l-5-6-2-5 4-8 12-14 12-13 14-15 9-10 11-12 7-7 9-11 5-7 1-5-18 2-22 6h-3l4 9v7l-12 19-8 11-28 42-13 21-10 18-11 24-9 17-16 24-4-1-3-6 1-7 5-12 13-27 12-22 3-6-1-6-8-11-10-14-5-11-1-7 4-13 8-10 10-10 16-12 15-9 19-9 31-12 21-6zm-55 28-23 11-16 10-13 10-10 9-7 9-4 8v9l5 9 9 12 6 10 4-2 14-25 11-17 7-11v-11l7-11 8-10 5-6v-4zm390 62-11 4-12 9-7 7-1 4 8 5 7 1 11-7 7-8 3-7v-6l-1-2zm-86 3-10 5-9 7-8 8-7 8-8 10-7 12v4l6-1 11-10 8-7 13-12 6-6v-2l4-2 10-10-2-4zm51 32-6 7-3 5 1 9 4 4 3 1h7l19-7 8-6 4-7v-4l-8 1h-12l-11-3zm-301 24-15 6-18 10-25 17-13 10-11 9-15 14-2 4 4 1 8-3 22-12 19-12 16-11 17-12 13-11 8-8v-2zm228 36-6 4-13 13-8 11-2 4 1 4 5-1 12-12 10-13 5-10z" fill="#FEFEFE"/>
<path transform="translate(1231,882)" d="m0 0h6l6 5 3 7-2 10-8 16-11 17-5 7-4-1-2-4 5-12 3-7v-3l-8 7-22 28-9 13-10 15-11 18-9 16-15 31-14 33-1 4 30-9 18-6 34-10 22-4h12l6 4 1 3-30 7-29 9-29 10-38 14-25 9-10 2-6-8 1-4 8-5 10-4 9-3 3-17 10-28 13-28 8-17 13-23 15-24 10-14 10-13 11-14 14-15 13-10z" fill="#FEFEFE"/>
<path transform="translate(1378,884)" d="m0 0 9 1 2 2v7l-8 16-9 16-8 11-11 14-9 10-23 23-4 7 3 1 25-25 11-8 6-3 7 1 6 7 1 9-6 21-8 16-8 11-8 6-8 3h-9l-7-3-6-5-3-5-6-1-1 3-3 2-5-1-2-2 1-9 3-11-24 4-6 3-17 17-9 6-5 2h-10l-6-4-6-12-1-10 2-10 7-20 7-13 9-9 12-6 3-1h10l10 5 6 7 2 4v17l-5 17 22-4 5-5 14-28 9-15 16-24 10-13 8-10 8-8zm-5 20-9 12-10 13-14 21-3 5v4l4-2 7-7 15-20 7-11 6-12v-3zm-105 49-11 11-10 8-10 12-3 6 1 4 5 2 12 1h14l6-7 5-13 2-9-1-7-6-8zm96 11-13 9-11 9-7 6v2l-4 2-7 8-6 7 1 6 5 8 5 3 8-1 10-9 7-10 8-16 4-12 1-5v-7zm-135 35-3 9-1 9 3 5 1 1 8-1 10-5 10-8 3-5-4-1-13-1-11-3z" fill="#FEFEFE"/>
<path transform="translate(1544,949)" d="m0 0h7l8 3 8 9 3 6v12l-4 8-9 10-9 4h-12l-13-4-6-1-5 12v8l2 4 3 2h9l14-5 23-12 14-9 7-9 10-16 10-13 6-7 5 2 3 6v6l-7 11-5 7-1 3 5-2 21-21 14-11 5-3 4 2 3 7 1 14 2 7 9 6v4l-7-1-7-6-7-15-6 2-15 13-6 6h-2v2l-8 7-9 9-9 11-15 16-5-1-2-3v-12l1-9-6 2-20 12-13 6-9 2-8-1-7-5-5-8-2-9v-7l3-11 8-16 9-11 9-8 8-4zm6 14-11 6-10 9-6 7-1 3 3 3 3 1 13-1 8-5 8-9 3-6v-7l-1-1z" fill="#FEFEFE"/>
<path transform="translate(1544,880)" d="m0 0 5 1 4 8-3 9-2 5 10-2 19-2 16-1h11l12 1 9 4 5 7 1 6-5-2-4-5-7-2h-27l-33 3-14 2-7 6-12 17-9 12-11 16-13 20-12 20-12 21-13 27-8 19-4 13-1 8-3 2-4-5 1-10 6-21 6-16 9-20 10-22 12-22 12-23 15-23 5-8 1-3-28 7-35 11-16 5-8 1-2-2v-5l6-5 25-9 22-6 45-10 11-11 7-8z" fill="#FEFEFE"/>
<path transform="translate(1086,922)" d="m0 0h16l11 2 3 3 1 5v7l-4 6-4 5-14 11-23 15-18 11-1 4 5 17 4 8 11-4h18l4 1v4l-16 2-12 5 1 5 3 5-1 3-10 4-6-1-5-3-5-9-5-8-7-16-1-3-12 5-16 10-13 10-10 9-3 4 21-3 20-6 18-6h2v2l-15 7-26 8-10 2h-27l-2-1 1-4 9-9 17-13 34-23 7-5h2l1-15 3-13 8-13 3-4h2l-2 6-3 6v5l3-1 6-12 6-8 9-8 14-7zm1 5-12 4-12 9-8 9-3 10v13l2 1 9-5 13-10 13-11 7-9 1-8-1-3z" fill="#FEFEFE"/>
<path transform="translate(1438,949)" d="m0 0h16l8 1 3-1h9l3 5-2 5-14 12-9 12-4 1-2-2 1-7 4-11 1-5-14 3-13 5-14 8-8 6h-2l1 2 6 1 26 1 8 3 6 5 3 6-3 9-7 8-10 8-16 8-8 3-12 1-7-3-4-5 1-7 9-10 10-8 7-5 1-2-16-1-6-4-2-3v-6l5-8 7-7 13-9 15-7zm-5 44-10 6-9 4-6 4-10 8-7 9v4l7 1 12-5 12-7 12-9 7-8-1-5-3-2z" fill="#FEFEFE"/>
<path transform="translate(307,994)" d="m0 0h8l6 5 4 10v12l-4 11-6 8-4 3h-8l-8-7-4-6-1-3v-15l4-8 9-8z" fill="#FEFEFE"/>
<path transform="translate(232,993)" d="m0 0h8l6 4 4 7 1 5v9l-4 12-8 10-3 2-7-1-8-6-5-9v-15l5-10 7-6z" fill="#FEFEFE"/>
<path transform="translate(1829,990)" d="m0 0 7 1 6 5 4 10v9l-4 12-5 7-5 3h-8l-6-4-4-5-3-7v-10l4-10 6-7z" fill="#FEFEFE"/>
<path transform="translate(1761,988)" d="m0 0h8l5 3 5 6 2 4v12l-6 12-4 5-8 4-9-3-6-9-1-3v-12l4-10 6-7z" fill="#FEFEFE"/>
<path transform="translate(846,1175)" d="m0 0h29l1 4-5 1-27-1v22h28l1 2-29 1v19h34l8-16 11-25 4-6 4 1 8 15 13 29 2 6h-3l-8-15-27-1-3 3-7 13h-40v-51zm56 6-4 7-8 18v2l3 1h23l-3-9-8-16z" fill="#FEFEFE"/>
<path transform="translate(801,1175)" d="m0 0h34l1 4h-19l-1 48-4-1v-42l-1-4-16-1v-2l-4 3h-23l-3 4-1 8 4 4 22 8 5 5 1 2v8l-2 4-6 4h-21l-6-3-1-3 9 2 14 1 7-3 2-6-3-7-6-3-13-3-8-6-2-3v-7l3-7 3-3z" fill="#FEFEFE"/>
<path transform="translate(1049,1176)" d="m0 0h22l6 3 8 9 3 9v7l-3 10-4 6-8 6-13 2-12-1-8-6-6-10-1-3v-14l5-10 7-6zm1 3-8 6-4 6-2 6v11l4 8 4 5 6 3 13 1 9-2 8-7 4-8v-14l-6-10-6-4-3-1z" fill="#FEFEFE"/>
<path transform="translate(1219,1175)" d="m0 0 7 1v3l-5 1-24-1-1 2-1 19 29 1v2l-28 1v19l30 1 2 1v2l-35 1-1-1-1-17v-29l1-5z" fill="#FEFEFE"/>
<path transform="translate(933,1176)" d="m0 0 4 1v33l9-10 24-24h2l-1 4-17 17-1 3 9 11 7 7 7 8-1 2-8-7-15-16-1-3-6 4-7 8-2 13h-3z" fill="#FEFEFE"/>
<path transform="translate(1153,1176)" d="m0 0h26v4l-26-1-1 4v11l5 3 21 7 5 5 1 9-5 7-4 2h-22l-6-4v-2l5 1 13 2 9-1 5-4 1-4-2-5-8-5-12-3-8-5-2-3v-10l3-7z" fill="#FEFEFE"/>
<path transform="translate(1096,1176)" d="m0 0h3l1 36 3 8 4 3 5 1h11l6-3 4-10 1-5 1-30 4 1-1 33-4 10-5 6-2 1h-21l-7-6-2-4-1-7z" fill="#FEFEFE"/>
<path transform="translate(982,1175)" d="m0 0 2 1-1 25h37v-15l1-10h3l-1 51h-2l-1-23h-36l-1 24-2-1-1-26 1-25z" fill="#FEFEFE"/>
<path transform="translate(1045,942)" d="m0 0" fill="#FEFEFE"/>
<path transform="translate(1046,941)" d="m0 0" fill="#FEFEFE"/>
</svg>
